<?xml version="1.0" encoding="utf-8"?>
<!-- Generator: Adobe Illustrator 18.1.0, SVG Export Plug-In . SVG Version: 6.00 Build 0)  -->
<svg version="1.1" id="Layer_1" xmlns="http://www.w3.org/2000/svg" xmlns:xlink="http://www.w3.org/1999/xlink" x="0px" y="0px"
	 viewBox="0 0 48 48" enable-background="new 0 0 48 48" xml:space="preserve">
<g>
	<path d="M4.3,10.5c2.9,1.5,5.8,3,8.6,4.5c0.9,0.5,1.6,0.6,2.5,0c2.1-1.2,4.4-2.3,6.5-3.4c0.7-0.4,1.3-0.5,2.1,0c1,0.6,2,1,3,1.6
		c1.6,0.9,1.5,2.9,2.7,4.1c-0.1,0.1-0.2,0.2-0.3,0.3c-1.9-0.9-3.7-1.8-5.8-2.9c0,2.2,0,4.1,0,6c0,0.5,0.3,1.3-0.7,1.3
		c-0.9,0-0.6-0.8-0.6-1.2c0-1.9,0-3.8,0-6.1c-2.5,1.3-4.8,2.5-7,3.7c-0.5,0.3-0.4,0.8-0.4,1.3c0,1.5,0,3.1,0,4.6
		c0,0.5,0.2,1.3-0.7,1.2c-0.9,0-0.7-0.8-0.7-1.3c0-1.6,0-3.2,0-4.8c0-0.6,0-1-0.6-1.3c-1.9-1-3.7-2-5.6-3c-0.5,0.3-0.3,0.7-0.3,1.1
		c0,6.2,0,12.4,0,18.6c0,1,0.3,1.6,1.2,2c1.7,0.9,3.4,1.9,5.4,3.1c0-2.2,0-4.2,0-6.2c0-0.4,0-0.9,0-1.3c0-0.5,0.1-1,0.8-1
		c0.7,0,0.7,0.4,0.7,1c0,1.9,0,3.7,0,5.6c0,0.5,0,0.9,0,1.7c2.5-1.6,4.7-3.1,7-4.6c0.5-0.3,0.4-0.8,0.4-1.3c0-1.5,0-3.1,0-4.6
		c0-0.5-0.3-1.3,0.6-1.4c1-0.1,0.7,0.8,0.7,1.3c0.1,1.9-0.7,4.1,0.3,5.6c1,1.5,3.1,2.2,4.7,3.3c0.8,0.5,1.6,1,2.7,1.7
		c0-2.5,0-4.7,0-6.9c0-0.5-0.3-1.3,0.7-1.4c1.1-0.1,0.8,0.8,0.8,1.4c0,2.2,0,4.5,0,7c2.3-1.3,4.4-2.4,6.5-3.5
		c0.6-0.3,0.4-0.9,0.4-1.4c0-3.3,0.1-6.5,0-9.8c-0.1-2.7,0.9-4.7,2.6-6.6c0.5,0.3,0.3,0.7,0.3,1c0,5.7,0,11.3,0,17
		c0,1.1-0.4,1.6-1.3,2.1c-2.9,1.6-6,3-8.7,5c-0.3,0-0.6,0-1,0c-2.8-1.1-5.1-3.2-7.7-4.7c-0.7-0.4-1.1-0.4-1.8,0
		c-1.7,1.2-3.4,2.3-5.1,3.5c-0.7,0.5-1.5,0.9-2.4,1.2c-0.3,0-0.6,0-1,0c-3-1.2-5.7-3.1-8.5-4.6c-0.7-0.4-1-0.9-0.9-1.7
		c0-8.3,0-16.6,0-24.9C4.2,11.7,4,11.1,4.3,10.5z"/>
	<path d="M10,25.6c1,0.1,1.6,0.6,1.6,1.6c0,0.9-0.5,1.5-1.4,1.6c-1,0.1-1.6-0.5-1.7-1.4C8.4,26.4,9.1,25.9,10,25.6z"/>
	<path d="M36.4,25.6c1,0.2,1.6,0.7,1.6,1.7c0,0.9-0.6,1.5-1.5,1.5c-1,0-1.6-0.6-1.6-1.5C34.8,26.3,35.5,25.8,36.4,25.6z"/>
	<path d="M18.3,28.1c-0.8-0.1-1.2-0.9-1.1-1.2c0.2-1.1,1.4-1.4,2.2-1.7c0.6-0.2,1,0.8,1,1.2C20.3,27.5,18.9,27.4,18.3,28.1z"/>
	<path d="M28.2,28.1c-0.6-0.7-2-0.6-2.1-1.8c0-0.4,0.3-1.4,1-1.1c0.8,0.4,2,0.5,2.2,1.7C29.3,27.3,29,28.1,28.2,28.1z"/>
	<path d="M23.1,25.6c-1.2,0.5-1.5-0.3-1.5-1.1c0-1.1,1-0.8,1.7-0.8c0.6,0,1.7-0.2,1.7,0.8C24.9,25.5,24.3,26.3,23.1,25.6z"/>
	<path d="M32.2,27.6c1.2-0.4,1.6,0.3,1.6,1.3c0,0.9-1,0.8-1.5,0.7c-0.7-0.1-1.8,0.3-1.8-0.8C30.4,27.8,31.1,27.2,32.2,27.6z"/>
	<path d="M14.3,29.6c-0.5-0.3-1.6,0.3-1.6-0.8c0-1.2,0.9-1.2,1.9-1.3c1.1-0.1,1.6,0.5,1.5,1.3C16,29.9,14.9,29.3,14.3,29.6z"/>
	<g>
		<path d="M37.6,5.1c-0.9,0-1.7,0-2.6,0c-0.2,0.1-0.3,0.2-0.5,0.3c-4,1.5-5.5,5.7-3.2,9.3c1.9,2.9,4.4,5.4,5.1,9.1
			c0.7-2.9,2.1-5.4,4-7.5C43.6,12.9,43.5,7,37.6,5.1z M36.4,13.2c-1.2,0-2.2-1-2.2-2.2c0-1.2,1-2.1,2.2-2c1.2,0,2.1,1,2.1,2.1
			C38.5,12.3,37.6,13.2,36.4,13.2z"/>
	</g>
</g>
</svg>
