<?xml version="1.0" encoding="utf-8"?>
<!-- Generator: Adobe Illustrator 18.1.0, SVG Export Plug-In . SVG Version: 6.00 Build 0)  -->
<svg version="1.1" id="Layer_1" xmlns="http://www.w3.org/2000/svg" xmlns:xlink="http://www.w3.org/1999/xlink" x="0px" y="0px"
	 viewBox="0 0 120.4 124.2" enable-background="new 0 0 120.4 124.2" xml:space="preserve">
<g>
	<path fill="#7E848C" d="M1.1,16.9c9,4.7,18,9.2,26.9,14.1c2.8,1.5,4.9,1.7,7.8,0.1c6.7-3.8,13.6-7.1,20.3-10.7
		c2.3-1.3,4.2-1.4,6.5-0.1c3,1.8,6.3,3.1,9.3,4.9c5,2.9,4.6,9.2,8.6,12.8c-0.3,0.3-0.6,0.7-0.9,1c-5.8-2.9-11.6-5.7-18.2-9
		c0,6.7,0.1,12.8,0,18.9c0,1.6,0.9,4.1-2.2,3.9c-2.7-0.1-1.8-2.4-1.9-3.8c-0.1-6,0-12,0-19.1c-7.7,4-14.8,7.7-21.9,11.5
		c-1.7,0.9-1.2,2.6-1.2,4.1c0,4.8,0,9.7,0,14.5c0,1.7,0.8,4-2.3,3.9c-2.9-0.1-2.2-2.4-2.3-4.1c-0.1-5,0-10,0-15c0-1.7-0.1-3.2-2-4.2
		c-5.9-3-11.7-6.2-17.4-9.3c-1.5,1.1-1,2.3-1,3.4c0,19.3,0,38.7-0.1,58c0,3.1,0.9,4.9,3.6,6.3c5.4,2.9,10.7,6,16.9,9.6
		c0-6.9,0-13.1,0-19.3c0-1.3,0-2.7,0-4c0-1.6,0.3-3,2.4-3.1c2.2-0.1,2.3,1.4,2.3,3c0,5.8,0,11.7,0,17.5c0,1.5,0,2.9,0,5.5
		c7.8-5.1,14.8-9.8,21.8-14.5c1.5-1,1.4-2.5,1.4-4c0-4.8-0.1-9.7,0-14.5c0-1.6-1.1-4.1,1.9-4.3c3.1-0.2,2.1,2.4,2.2,4
		c0.4,5.9-2.1,12.9,1,17.6c3.1,4.6,9.5,6.9,14.5,10.2c2.5,1.6,5,3.2,8.4,5.3c0-7.7,0-14.6,0-21.5c0-1.6-0.8-4.1,2-4.2
		c3.3-0.2,2.5,2.4,2.6,4.2c0.1,7,0,14,0,22c7.2-3.9,13.7-7.4,20.2-11c1.8-1,1.3-2.9,1.3-4.5c0-10.2,0.4-20.3-0.1-30.5
		c-0.4-8.4,2.9-14.7,8.1-20.7c1.5,0.8,0.8,2.1,0.8,3.1c0,17.7-0.1,35.3,0.1,53c0,3.4-1.3,4.9-4.1,6.5c-9.1,5.1-18.7,9.4-27.2,15.5
		c-1,0-2,0-3,0c-8.8-3.6-15.9-10-24-14.8c-2.2-1.3-3.5-1.4-5.5,0.1c-5.2,3.8-10.7,7.2-16,10.9c-2.3,1.6-4.8,2.9-7.4,3.8
		c-1,0-2,0-3,0c-9.4-3.9-17.8-9.8-26.7-14.5c-2.2-1.2-3.1-3-2.8-5.4c0-25.9,0-51.9,0-77.8C0.6,20.5,0.1,18.7,1.1,16.9z"/>
	<path fill="#8B9198" d="M0.9,102.3c0,0-0.5,0-0.5,0L0.1,102c0-28.7,0-57.3,0-86c0.3,0.3,0.7,0.6,1,0.9C1,45.4,1,73.9,0.9,102.3z"/>
	<path fill="#82878F" d="M18.8,64.1c3,0.4,5.1,1.9,5.2,5c0.1,2.8-1.5,4.7-4.4,5c-3.2,0.3-5.1-1.4-5.4-4.5
		C13.9,66.4,15.9,64.8,18.8,64.1z"/>
	<path fill="#82888F" d="M101.2,64.1c3.2,0.5,5.1,2,5,5.3c-0.1,2.9-1.7,4.7-4.7,4.7c-3.1,0.1-5.1-1.8-5.1-4.8
		C96.4,66.2,98.4,64.5,101.2,64.1z"/>
	<path fill="#838990" d="M44.9,71.9c-2.5-0.5-3.8-2.8-3.5-3.9c0.7-3.4,4.3-4.3,7-5.3c1.9-0.7,3.3,2.4,3.1,3.6
		C51,70,46.6,69.5,44.9,71.9z"/>
	<path fill="#838990" d="M75.7,71.9c-1.9-2.1-6.2-1.7-6.5-5.5C69,65.2,70,62,72.2,63c2.6,1.1,6.4,1.6,6.9,5.2
		C79.2,69.3,78.2,71.8,75.7,71.9z"/>
	<path fill="#848A92" d="M59.8,64.1c-3.7,1.7-4.8-0.9-4.8-3.4c0.1-3.3,3.3-2.5,5.2-2.4c2,0,5.3-0.6,5.3,2.5
		C65.4,63.8,63.5,66,59.8,64.1z"/>
	<path fill="#82888F" d="M88.1,70.4c3.6-1.1,5.1,1.1,5,4c-0.1,2.8-3.1,2.4-4.6,2.1c-2-0.3-5.7,1-5.8-2.6
		C82.6,71,84.6,69.1,88.1,70.4z"/>
	<path fill="#828890" d="M32.2,76.5c-1.6-1-4.9,1.1-4.9-2.5c0-3.7,2.7-3.8,5.8-4c3.5-0.2,4.9,1.7,4.7,4.1
		C37.6,77.5,34.1,75.5,32.2,76.5z"/>
	<g>
		<path fill="#7E848C" d="M105.1,0c-2.7,0-5.3,0-8,0c-0.5,0.3-1,0.7-1.6,1c-12.4,4.7-17.2,17.9-10,28.9c6,9.1,13.9,17,15.8,28.4
			c2.2-9.2,6.5-16.9,12.5-23.4C123.8,24.2,123.4,5.9,105.1,0z M101.5,25.2c-3.9,0-7-3.1-6.8-6.9c0.2-3.6,3.3-6.5,6.9-6.4
			c3.7,0.1,6.6,3,6.6,6.7C108.1,22.3,105.2,25.2,101.5,25.2z"/>
	</g>
</g>
</svg>
