<?xml version="1.0" encoding="utf-8"?>
<!-- Generator: Adobe Illustrator 18.1.0, SVG Export Plug-In . SVG Version: 6.00 Build 0)  -->
<svg version="1.1" id="Layer_1" xmlns="http://www.w3.org/2000/svg" xmlns:xlink="http://www.w3.org/1999/xlink" x="0px" y="0px"
	 viewBox="0 293.4 595.3 266.3" enable-background="new 0 293.4 595.3 266.3" xml:space="preserve">
<g>
	<g>
		<g>
			<g enable-background="new    ">
				<path d="M233.2,325.1v119.8h-7.3V325.1h-28.1v-7.3h63.5v7.3H233.2z"/>
				<path d="M322.7,444.9v-12.6c-7.7,9.3-17.5,13.9-29.4,13.9c-10.7,0-19.6-3.6-26.9-10.9c-7.4-7.4-11-16.4-11-27
					c0-10.6,3.6-19.6,10.9-26.9c7.4-7.4,16.4-11,27-11c11.7,0,21.5,4.6,29.4,13.9v-12.8h7.3V445L322.7,444.9L322.7,444.9z
					 M315.1,386.5c-6.1-6.1-13.3-9.1-21.7-9.1c-8.5,0-15.8,3-21.7,8.9c-6,6.1-9.1,13.3-9.1,21.9c0,8.4,3,15.7,9.1,21.7
					c6.1,6,13.3,9.1,21.7,9.1c8.5,0,15.8-3,21.7-8.9c6-6,9.1-13.3,9.1-21.9C324.1,399.8,321.1,392.6,315.1,386.5z"/>
				<path d="M365.1,479.4h-8.2l19-41.3l-31-66.7h7.8l27.4,58l27-58h8L365.1,479.4z"/>
				<path d="M432.9,444.9V313.2h7.1v131.7L432.9,444.9L432.9,444.9z"/>
				<path d="M524.5,435.1c-7.4,7.4-16.4,11-27,11s-19.6-3.6-26.9-10.9c-7.4-7.4-11-16.4-11-27s3.7-19.5,11-26.9
					c7.2-7.5,16.2-11.2,26.9-11.2c10.6,0,19.5,3.7,26.9,11c7.4,7.4,11,16.4,11,27S531.7,427.9,524.5,435.1z M519.3,386.3
					c-5.9-6-13.2-9.1-21.9-9.1c-8.3,0-15.5,3.1-21.5,9.3c-6.2,6.2-9.3,13.4-9.3,21.7c0,8.4,3,15.7,9.1,21.7s13.3,9.1,21.7,9.1
					c8.5,0,15.8-3,21.7-8.9c6-6,9.1-13.3,9.1-21.9C528.2,399.6,525.3,392.3,519.3,386.3z"/>
				<path d="M588.4,382.2c-1.9-1.4-3.9-2.5-6-3.4c-2.1-0.8-4.4-1.2-6.8-1.2c-2,0-3.9,0.6-5.7,1.9c-1.8,1.3-3.3,2.8-4.6,4.6
					c-1.3,1.8-2.3,3.9-3.1,6.1c-0.8,2.3-1.2,4.3-1.2,6.2v48.4h-7.3v-73.5h7.3v10c1.5-2.7,3.6-5.2,6-7.5c2.5-2.3,5.2-3.4,8.2-3.4
					c3.7,0,6.7,0.4,9.1,1.2c2.4,0.8,5,2.3,8,4.4L588.4,382.2z"/>
			</g>
		</g>
		<g enable-background="new    ">
			<path d="M254.7,529.8c-3.8,3.8-8.9,5.7-15.1,5.7c-11.6,0-18.5-4.5-20.7-13.6h4.2c0.8,3.3,2.9,5.8,6.5,7.5c2.8,1.3,6.2,1.9,10,1.9
				c5.3,0,9.3-1.5,12.2-4.4c2.9-2.9,4.4-7,4.4-12.3v-6.3c-4.4,5.3-10.1,8-16.9,8c-6.2,0-11.3-2.1-15.5-6.3
				c-4.2-4.2-6.4-9.4-6.4-15.6s2.1-11.3,6.3-15.5c4.2-4.2,9.4-6.4,15.6-6.4c6.8,0,12.4,2.7,16.9,8v-7.4h4.2v41.4
				C260.5,520.9,258.6,525.9,254.7,529.8z M251.9,482c-3.5-3.5-7.7-5.2-12.5-5.2c-4.9,0-9.1,1.7-12.5,5.1c-3.5,3.5-5.2,7.7-5.2,12.6
				c0,4.9,1.7,9,5.2,12.5c3.5,3.5,7.7,5.2,12.5,5.2c4.9,0,9.1-1.7,12.5-5.1c3.5-3.5,5.2-7.7,5.2-12.6
				C257.1,489.6,255.4,485.5,251.9,482z"/>
			<path d="M310,510c-4.2,4.2-9.4,6.4-15.6,6.4c-7,0-12.9-2.9-17.4-8.6v27.8h-4.2v-62.2h4.2v8c4.4-5.7,10.2-8.6,17.4-8.6
				c6.2,0,11.3,2.1,15.5,6.3c4.2,4.2,6.4,9.4,6.4,15.6C316.3,500.6,314.2,505.8,310,510z M306.9,482c-3.5-3.5-7.7-5.2-12.5-5.2
				c-4.9,0-9.1,1.7-12.5,5.1c-3.5,3.5-5.2,7.7-5.2,12.6c0,4.9,1.7,9,5.2,12.5c3.5,3.5,7.7,5.2,12.5,5.2c4.9,0,9.1-1.7,12.5-5.1
				c3.5-3.5,5.2-7.7,5.2-12.6C312.2,489.6,310.4,485.5,306.9,482z"/>
			<path d="M346.4,513c-2.7,2.3-6,3.5-9.8,3.5c-6.6,0-11.5-3-14.8-8.9l3.6-2.2c1.2,2.1,2.6,3.8,4.2,4.9c1.7,1.3,4,1.9,7,1.9
				c6.4,0,9.6-2.7,9.6-8.2c0-2.4-1.1-4.5-3.4-6.3c-0.7-0.4-1.7-0.9-2.9-1.4c-1.3-0.5-2.8-1.1-4.7-1.8c-3.4-1.2-5.9-2.5-7.4-3.7
				c-2.2-1.8-3.3-4.3-3.3-7.7c0-2.9,1.1-5.3,3.3-7.4c2.1-2.1,4.9-3.2,8.3-3.2c4.7,0,8.7,1.6,12,4.9l-3.1,2.7
				c-2.3-2.3-5.3-3.5-8.9-3.5c-4.9,0-7.4,2.2-7.4,6.5c0,1.9,0.8,3.5,2.3,4.7c1.2,1,3.2,1.9,5.8,2.8c2.3,0.8,4.2,1.6,5.7,2.3
				c1.5,0.7,2.6,1.4,3.4,1.9c2.9,2.3,4.4,5.3,4.4,9.1C350.4,507.7,349.1,510.7,346.4,513z"/>
		</g>
	</g>
	<g>
		<g>
			<g>
				<defs>
					<path id="SVGID_1_" d="M161.1,386.6c0,44.7-68.6,147-81.5,147c-15.3,0-81.5-101.7-81.5-147s36.7-81.5,81.5-81.5
						S161.1,341.3,161.1,386.6z"/>
				</defs>
				<clipPath id="SVGID_2_">
					<use xlink:href="#SVGID_1_"  overflow="visible"/>
				</clipPath>
				<g clip-path="url(#SVGID_2_)">
					<path d="M-1.2,418.5c3.1-1.2,5.5-3.1,8-4.9c5.5-3.7,10.4-8,15.3-12.2c6.1-5.5,10.4-12.2,14.1-19c3.7-6.7,7.3-14.1,11-21.4
						c0-0.6,0.6-0.6,1.2-0.6c1.8,0.6,1.8,0.6,1.2,2.4c-3.7,8.6-8.6,16.5-12.9,24.5c-5.5,8.6-12.2,15.9-19.6,22
						c-5.5,4.3-11,8-17.1,11.6C-0.6,420.3-0.6,419.7-1.2,418.5L-1.2,418.5z"/>
					<path d="M84.5,291.7c10.4,0.6,20.8,3.1,30,6.7c0.6,0,0.6,0.6,0.6,1.2c-0.6,1.8-0.6,1.8-3.1,1.2c-9.8-3.7-20.2-6.1-31.2-6.1
						c-12.2,0-24.5,1.8-35.5,6.7c-0.6,0-1.2,0-1.2-0.6c-0.6-2.4-0.6-2.4,1.8-3.1c9.2-3.7,18.4-5.5,28.2-6.1c0.6,0,1.2,0,1.8,0
						c2.4,0,4.9,0,6.7,0C83.3,291.7,83.9,291.1,84.5,291.7z"/>
					<path d="M84.5,291.7c-0.6,0-1.2,0-1.8,0C83.3,291.1,83.9,291.1,84.5,291.7L84.5,291.7z"/>
					<path d="M75.9,291.1c-0.6,0.6-1.2,0-1.8,0l0,0C74.7,291.1,75.3,291.1,75.9,291.1z"/>
					<path d="M152.5,385.4c0,9.2-2.4,17.8-6.1,26.3c-1.8,3.7-3.7,7.3-5.5,11s-3.7,7.3-4.3,11.6c-1.2,6.1,0.6,11,4.9,15.3
						c3.7,3.7,8,6.1,12.9,8c0.6,0,0.6,0.6,0.6,0.6c-0.6,2.4-0.6,2.4-2.4,1.2c-6.1-1.8-11-5.5-14.7-10.4c-3.7-4.3-4.9-9.8-3.7-15.9
						c0.6-4.9,3.1-9.2,4.9-13.5c3.1-5.5,5.5-11,7.3-16.5c2.4-8,3.7-16.5,2.4-25.1c-1.2-11.6-4.9-22.7-11.6-33.1
						c-5.5-8-12.2-14.7-20.2-20.2c-7.3-4.9-15.3-8.6-23.9-10.4c-7.3-1.2-14.7-1.2-22,0c-4.9,0.6-10.4,1.8-15.3,3.1
						c-8,2.4-14.7,6.7-20.2,12.2c-3.7,3.7-7.3,7.3-10.4,11.6c-4.3,4.9-7.3,10.4-9.8,16.5C13,365,8.7,370.6,3.8,376.1
						c-0.6,0.6-0.6,0.6-1.2,0c-1.8-1.2-1.8-1.2,0-3.1c4.9-5.5,8.6-11.6,11-18.4c1.8-6.1,5.5-11.6,9.8-17.1
						c4.3-4.3,8.6-8.6,13.5-12.9c6.7-6.1,14.7-9.2,23.9-11c4.9-1.2,9.8-2.4,15.3-2.4c8.6-0.6,17.1,0,25.1,2.4
						c11,3.7,20.2,9.2,28.2,17.1c12.2,11.6,19,25.7,22,41.6C152.5,376.9,152.5,381.1,152.5,385.4z"/>
					<path d="M80.8,336.4c11.6,0,22,3.7,30,11.6c8.6,8,14.1,17.8,15.3,29.4c1.2,12.2-1.8,23.9-8.6,34.3c-4.3,6.7-6.7,14.1-7.3,22.7
						c0,6.7,1.2,12.9,4.3,18.4c2.4,3.7,5.5,6.7,9.2,9.8c8,6.1,16.5,11,25.7,15.9c0.6,0.6,1.2,0.6,0.6,1.8c-0.6,1.8-0.6,1.8-2.4,0.6
						c-9.2-4.9-18.4-10.4-26.9-17.1c-6.7-5.5-11-12.2-12.9-20.8c-1.2-8.6,0-16.5,3.1-24.5c1.2-3.1,2.4-5.5,4.3-8
						c4.3-5.5,6.1-12.2,8-19c3.7-19-6.1-36.1-18.4-45.3c-6.7-4.3-14.1-6.7-22-6.7c-6.7,0-12.9,0.6-19,3.1
						c-6.7,3.1-11.6,7.3-15.9,12.9c-6.7,8.6-12.2,17.1-17.1,26.9c-4.9,10.4-12.9,19-22,25.7c-2.4,1.8-4.9,3.1-7.3,4.9
						c-0.6,0.6-0.6,0-1.2,0c-1.2-1.8-1.2-1.8,0.6-3.1c9.2-6.1,17.8-13.5,23.9-22.7c2.4-4.3,4.3-8.6,6.7-12.2
						c4.9-9.2,10.4-17.8,17.8-25.1c6.1-6.7,14.1-11,23.3-12.2C74.7,336.4,77.8,336.4,80.8,336.4z"/>
					<path d="M94.9,439.3c0-11.6,3.1-22.7,8.6-33.7c1.2-1.8,1.8-3.7,3.1-5.5c3.1-4.9,4.3-10.4,4.3-16.5c0-7.3-2.4-13.5-7.3-19
						c-5.5-6.7-12.2-10.4-20.8-11c-7.3-0.6-14.7,1.2-20.8,6.1c-5.5,4.3-9.2,9.2-12.2,15.3c-4.3,9.2-9.2,17.8-15.9,25.7
						c-4.9,6.1-11,11.6-17.1,16.5c-4.9,4.3-10.4,8-15.9,11.6c-0.6,0-0.6,0.6-1.2,0c-1.2-1.8-1.2-1.8,0.6-3.1
						c11-7.3,21.4-15.3,30.6-25.1c5.5-6.1,9.8-13.5,13.5-20.2c1.8-3.7,3.1-7.3,5.5-10.4c6.1-10.4,14.7-17.1,26.9-19
						c10.4-1.2,19,1.8,26.3,9.2c4.9,4.9,8.6,11,9.8,17.8c1.8,8.6,0,15.9-4.3,23.3c-4.9,8.6-8.6,17.8-10.4,27.6c0.6,1.8,0,4.9,0,8
						c0,4.3,0,9.2,0.6,13.5c1.2,6.7,4.9,12.9,9.8,17.8c3.7,4.3,8.6,7.3,13.5,9.8c7.3,4.3,14.7,8,22,12.2c0.6,0.6,0.6,0.6,0.6,1.2
						c-1.2,1.8-1.2,1.8-2.4,0.6c-8.6-4.9-17.1-9.8-25.7-14.7S101.7,465,98,455.9C95.5,451.6,94.9,446.7,94.9,439.3z"/>
					<path d="M101.1,383.6c0,3.7-1.2,7.3-3.1,11c-3.7,8-8,15.9-12.2,23.3c-6.7,12.2-15.9,22.7-26.3,31.8
						c-14.7,12.2-30,23.3-47.2,31.8c-0.6,0.6-1.2,0.6-1.2-0.6c-0.6-1.8-0.6-1.8,0.6-2.4c15.9-8,30.6-18.4,44.7-30
						c12.9-10.4,22.7-23.3,30-38c3.1-6.7,6.7-12.9,9.8-19.6c5.5-12.2-3.7-23.3-12.9-25.7c-5.5-1.2-10.4,0.6-15.3,4.3
						c-2.4,1.8-4.3,4.3-5.5,7.3c-3.1,6.7-6.7,12.9-9.8,19c-3.7,7.3-9.2,14.1-14.7,19.6c-7.3,6.7-14.7,13.5-22.7,19.6
						c-3.7,3.1-8,5.5-11.6,8c-0.6,0.6-1.2,0-1.2-0.6c-1.2-1.8-1.2-1.8,0.6-2.4c11-6.7,20.8-14.1,30-23.3c4.3-4.3,8.6-8.6,12.2-13.5
						c3.7-4.3,6.1-9.2,9.2-14.1c3.1-4.9,5.5-10.4,8-15.9c3.1-6.1,8-9.8,14.7-11c6.1-1.2,11,0.6,15.9,4.3c4.3,3.7,7.3,8.6,8,14.1
						C101.1,381.7,101.1,382.4,101.1,383.6z"/>
					<path d="M91.9,383c0-3.7-1.8-6.1-4.9-8.6c-1.2-1.2-3.1-2.4-5.5-3.1c-3.1-0.6-5.5,0.6-8,2.4c-2.4,1.8-4.3,4.3-5.5,6.7
						c-1.8,4.3-4.3,8-6.1,12.2c-1.8,4.9-4.9,8.6-8,12.9c-5.5,6.1-10.4,12.9-15.9,18.4c-8,8.6-17.8,15.3-28.2,20.8
						c-1.8,1.2-4.3,1.8-6.1,3.1c-0.6,0-0.6,0-1.2-0.6c-1.2-1.8-1.2-1.8,0.6-3.1c11.6-6.1,22-12.9,31.2-22c7.3-8,14.7-15.9,20.8-24.5
						c1.8-2.4,3.1-6.1,4.9-9.2c1.8-3.7,3.7-8,5.5-11.6c1.8-3.1,4.3-6.1,7.3-8c4.3-2.4,9.2-3.1,13.5,0c4.3,2.4,6.7,6.7,7.3,11.6
						c0.6,2.4-0.6,4.9-1.2,7.3C90,395,86.3,401.8,82,407.9c-5.5,8-11,15.9-16.5,23.3c-3.1,4.3-7.3,8-11,11.6
						C41,455.2,26.3,465.7,9.8,473c-1.2,0.6-1.2,0.6-1.8-0.6c-0.6-1.2-0.6-1.2,0.6-1.8c16.5-7.3,30.6-17.1,44.1-29.4
						c7.3-6.7,12.9-14.1,18.4-22c3.7-5.5,8-11,11.6-16.5c3.7-5.5,6.1-11.6,8-18.4C91.3,384.8,91.9,384.2,91.9,383z"/>
					<path d="M158,383.6c0,7.3-0.6,15.3-3.1,22.7c-1.8,6.1-4.9,12.2-8,17.8c-2.4,4.3-4.3,9.2-4.3,14.1c0,3.1,0.6,6.1,3.1,8.6
						c2.5,2.5,4.9,3.1,8,3.7c0.6,0,0.6,0.6,0.6,1.2c-0.6,1.8,0,1.8-2.4,1.8c-4.9-1.2-9.2-3.7-11-8.6c-1.8-3.7-1.8-7.3-1.2-11.6
						c1.2-5.5,3.7-10.4,6.1-15.3c3.7-8,6.7-15.9,8-24.5c1.8-15.3,0-30-6.1-44.1c-4.3-9.2-10.4-16.5-17.8-22.7
						c-5.5-4.3-11-9.2-17.8-12.2c-8-3.7-15.9-6.1-25.1-7.3c-13.5-0.6-27.6,2.4-40.4,8.6c-0.6,0-0.6,0-1.2,0
						c-0.6-2.4-0.6-2.4,1.2-3.1c9.8-4.9,20.2-7.3,31.2-7.3c12.9-0.6,25.1,2.4,36.7,8c6.1,3.1,11.6,7.3,17.1,11.6
						c6.1,4.9,11.6,10.4,15.3,17.1c5.5,8.6,8.6,17.8,10.4,28.2C158,373.8,158.6,378.7,158,383.6z"/>
					<path d="M80.2,346.2c-9.2,0-17.1,3.1-24.5,8.6c-0.6,0.6-0.6,0.6-1.2-0.6c-1.2-1.2-1.2-1.2,0-1.8c8-6.1,17.1-9.8,27.6-9.2
						c19,0.6,34.3,14.7,37.4,33.1c1.2,7.3,0,14.1-2.4,20.8c-2.4,6.1-4.9,12.2-8,18.4c-4.9,10.4-6.7,21.4-3.7,32.5
						c1.8,6.1,5.5,11.6,10.4,15.9c7.3,6.7,15.3,12.9,25.1,17.8c1.8,1.2,4.3,1.8,6.7,3.1c0.6,0,0.6,0.6,0.6,0.6
						c-0.6,1.8-0.6,1.8-3.1,1.2c-9.2-3.7-17.8-9.2-25.7-15.9c-3.7-3.1-8-6.7-11-10.4c-4.9-6.1-6.7-13.5-7.3-21.4
						c-0.6-9.8,1.8-18.4,6.1-26.9c3.7-6.7,6.7-14.1,8.6-22c2.4-9.8,0.6-19.6-4.9-28.2c-6.1-9.8-15.3-15.3-26.9-16.5
						C82.7,346.2,81.5,346.2,80.2,346.2z"/>
					<path d="M82.7,317.4c14.7,0,29.4,5.5,41.6,17.1c8.6,7.3,14.1,17.1,17.8,27.6c1.2,2.4,1.8,4.9,2.4,8c0,0.6,0,0.6-0.6,1.2
						c-1.8,0.6-1.8,0.6-2.4-1.8c-4.3-15.9-12.2-28.8-26.3-38.6c-8-5.5-17.1-8.6-26.9-9.8c-19.6-2.4-36.7,3.1-51.4,16.5
						c-8,7.3-13.5,15.9-17.1,26.3c0,0.6-0.6,1.2-1.2,0.6c-1.8-0.6-1.8-0.6-1.2-1.8c6.1-16.5,17.1-29.4,32.5-37.4
						C59.4,319.9,69.8,317.4,82.7,317.4z"/>
					<path d="M80.8,323c12.9,0,25.1,4.9,36.1,13.5c0.6,0.6,0.6,0.6,0,1.2c-1.2,1.8-1.2,1.8-3.1,0.6c-8-6.1-17.1-10.4-27.6-11.6
						c-10.5-1.2-20.2,0.6-29.4,4.9c-8.6,3.7-15.9,10.4-22,17.8c-4.3,5.5-7.3,12.2-10.4,18.4c-3.7,8.6-9.8,16.5-16.5,23.3
						c-1.8,1.8-4.3,3.7-6.1,5.5c-0.6,0.6-0.6,0.6-1.2,0c-0.6-0.6-1.2-1.2-1.2-1.8c0-0.6,0.6-0.6,1.2-1.2c8-6.1,14.1-14.1,19-22.7
						c1.8-3.7,3.7-8,5.5-12.2c6.7-12.2,15.3-22,28.2-28.8C61.9,325.4,71,323.6,80.8,323z"/>
					<path d="M104.1,381.7c0-1.2,0-2.4,0-3.7c0-0.6,0-0.6,0.6-0.6c2.4-0.6,2.4-0.6,2.4,1.8c0.6,8-1.2,14.7-4.9,22
						c-4.3,8-9.2,15.9-14.1,23.9c-4.9,8-11,14.7-17.1,21.4c-10.4,11-22,20.8-34.9,29.4c-6.7,4.3-14.1,8.6-21.4,12.2
						c-0.6,0.6-0.6,0-1.2-0.6c-1.2-1.8-1.2-1.8,0.6-3.1c17.8-9.2,34.3-20.8,49-34.9c8-8,15.9-15.9,22-25.1
						c4.3-6.7,8.6-13.5,12.2-20.8c1.8-3.1,3.7-6.7,4.9-9.8C103.5,389.7,104.1,386,104.1,381.7z"/>
					<path d="M139,380.5c0,7.3-1.8,15.9-4.3,23.9c-1.8,6.1-4.3,11.6-7.3,16.5c-4.9,9.8-4.9,19.6,0.6,28.8c1.8,3.7,5.5,6.1,8.6,8.6
						c4.9,3.7,10.4,6.7,15.9,8c0.6,0,0.6,0,0.6,0.6c-0.6,2.4-0.6,2.4-2.4,1.2c-8.6-3.1-15.9-7.3-21.4-13.5c-5.5-5.5-7.3-12.2-8-19.6
						c0-6.1,1.2-11.6,4.3-16.5c5.5-9.8,9.2-20.8,10.4-32.5c1.8-13.5-1.8-25.7-10.4-36.1c-1.2-1.8-2.4-3.1-3.7-4.3
						c-0.6-0.6-0.6-0.6,0-1.2c1.8-1.2,1.8-1.2,3.1,0c5.5,6.1,9.8,13.5,12.2,21.4C138.4,370.7,139,375,139,380.5z"/>
					<path d="M125.5,313.2c-0.6,0.6-1.2,1.2-1.8,1.8c0,0,0,0-0.6,0c-6.1-4.9-12.9-7.3-20.2-9.2c-4.9-1.2-9.2-2.4-14.1-3.1
						c-14.1-1.8-28.2-0.6-41,5.5c-4.9,1.8-10.4,4.3-15.3,6.7c-6.7,3.7-12.2,9.2-17.1,15.9c-3.7,4.3-6.7,9.2-9.2,14.1
						c0,0.6-0.6,0.6-1.2,0.6c-1.8-1.2-1.8-1.2-0.6-2.4c4.9-9.2,11-17.8,18.4-24.5c3.7-3.1,8-6.1,12.2-8c6.1-3.1,12.9-6.1,19-8.6
						c8-3.1,16.5-3.7,24.5-3.7c13.5,0.6,26.3,3.7,38,8.6C119.4,308.3,122.5,310.1,125.5,313.2C125.5,312.5,125.5,312.5,125.5,313.2z
						"/>
					<path d="M88.2,383.6c0,2.4-0.6,4.3-1.8,6.1c-4.9,8.6-9.2,16.5-14.7,24.5c-3.7,5.5-8,10.4-12.2,15.3c-9.8,12.2-22,22-35.5,30
						c-0.6,0.6-0.6,0-1.2,0c-0.6-1.2-0.6-1.2,1.2-2.4c11-6.7,20.8-14.7,30-23.9c4.9-5.5,9.2-11,13.5-16.5c4.3-4.9,7.3-11,10.4-16.5
						c2.4-3.7,4.3-7.3,6.1-11c0.6-1.2,1.2-3.1,1.2-4.9c0-3.1-1.8-5.5-4.9-6.1c-3.1-0.6-5.5,1.2-6.1,4.3c-1.2,4.9-3.7,9.2-6.1,13.5
						c-0.6,0.6-0.6,1.2-1.2,0.6c-1.8-1.2-1.8-1.2-0.6-2.4c2.4-3.7,4.3-8,5.5-12.2c1.8-6.7,9.2-8.6,14.1-4.3
						C87.6,379.3,88.2,381.1,88.2,383.6z"/>
					<path d="M80.2,483.4c8.6,0,17.1,2.4,24.5,6.7c9.8,5.5,19,11,28.8,16.5c0.6,0.6,0.6,0.6,0.6,1.2c-1.2,1.8-1.2,1.8-2.4,0.6
						c-9.2-5.5-18.4-10.4-28.2-15.9c-7.3-4.3-15.3-6.1-23.9-6.1c-7.3,0-13.5,1.8-20.2,4.9c-4.3,1.8-8.6,4.9-12.9,7.3
						c-6.1,3.7-12.2,6.7-18.4,9.8c-0.6,0-0.6,0-1.2-0.6c0-0.6-0.6-1.2-0.6-1.8c0-0.6,1.2-0.6,1.8-1.2c8-4.3,15.9-8.6,23.3-13.5
						c6.7-4.3,14.1-7.3,21.4-8C75.3,483.4,77.8,483.4,80.2,483.4z"/>
					<path d="M132.9,384.2c0,12.2-3.7,23.9-10.4,33.7c-0.6,0.6-0.6,0.6-1.2,0c-1.2-1.2-1.2-1.2-0.6-2.4c6.1-8.6,9.2-18.4,9.8-29.4
						c0.6-13.5-3.1-26.3-12.2-36.7c-6.7-8.6-15.9-13.5-26.9-15.3c-2.4-0.6-4.9-0.6-7.3-0.6c-0.6,0-0.6,0-0.6-0.6
						c0-2.4,0-2.4,2.4-1.8c20.8,1.2,34.9,11.6,43.5,30.6C131.7,368.9,132.9,376.2,132.9,384.2z"/>
					<path d="M124.9,487.7C124.9,488.3,124.9,488.3,124.9,487.7c-0.6,0.6-1.2,1.2-1.2,1.8c-0.6,0.6-0.6,0.6-1.2,0
						c-9.2-7.3-19-12.2-30.6-14.7c-12.9-2.4-25.7-1.2-38,4.3c-3.7,1.8-7.3,4.3-10.4,6.1c-7.3,4.9-15.3,8.6-23.3,12.2
						c-0.6,0-1.2,0-1.2-0.6c-0.6-1.2-0.6-1.2,1.2-2.4c9.8-4.3,18.4-9.2,27.6-14.7c7.3-4.9,15.9-8,25.1-8.6
						C91.9,469.3,109,475.5,124.9,487.7C124.3,487.7,124.9,487.7,124.9,487.7z"/>
					<path d="M81.5,384.2v0.6c-7.3,15.9-17.1,30.6-28.8,43.5c-8,8.6-16.5,17.1-26.9,23.9c-6.1,4.3-12.2,8-19,11
						c-0.6,0-0.6,0-1.2-0.6c-0.6-1.8-0.6-1.8,1.2-3.1c12.9-6.1,23.9-14.1,34.3-23.9c9.8-9.2,18.4-19,25.7-30.6
						c4.3-6.7,8.6-14.1,12.2-21.4c0.6-0.6,0.6-1.2,1.2-0.6C80.2,383.6,80.8,383.6,81.5,384.2C80.8,383.6,81.5,383.6,81.5,384.2z"/>
					<path d="M80.2,489.5c5.5,0,10.4,1.2,15.3,3.7c8.6,4.3,15.9,8.6,23.9,13.5c3.1,1.8,6.7,3.7,9.8,5.5c0.6,0.6,0.6,0.6,0.6,1.2
						c-1.2,1.8-1.2,1.8-2.4,0.6c-7.3-4.3-15.3-8.6-22.7-12.9c-4.3-2.4-8.6-4.9-13.5-6.7c-4.9-1.8-9.8-2.4-15.3-1.8
						c-7.3,0.6-13.5,3.7-19.6,7.3c-8,4.9-15.9,9.2-24.5,13.5c-0.6,0-0.6,0-1.2-0.6c0-1.2,0-1.2,1.8-2.4c9.2-4.3,17.8-9.2,26.3-14.7
						C64.9,492,72.3,490.1,80.2,489.5z"/>
					<path d="M95.5,420.9C95.5,421.6,95.5,421.6,95.5,420.9c-3.1,8.6-7.3,15.3-12.9,21.4c-12.9,14.1-26.9,26.3-42.3,37.4
						c-7.3,4.9-14.7,9.2-23.3,12.2c-0.6,0-0.6,0-1.2-0.6c-0.6-1.8-0.6-1.8,1.2-2.4c10.4-3.7,20.2-9.8,28.8-16.5
						c9.8-8,19-15.9,28.2-25.1c4.9-4.9,9.8-9.8,13.5-15.9c1.8-3.7,3.7-6.7,4.9-11c0.6-0.6,0.6-1.2,1.2-0.6
						C94.9,420.3,94.9,420.3,95.5,420.9C95.5,420.9,96.2,420.9,95.5,420.9z"/>
					<path d="M0.6,405.6c-0.6-0.6-1.2-1.2-1.8-1.8c0-0.6,1.2-1.2,1.8-1.8c12.9-10.4,22-23.3,29.4-38c2.4-5.5,5.5-10.4,9.8-14.7
						c6.1-6.7,14.1-11.6,22.7-14.7c3.1-1.2,6.7-2.4,10.4-3.1c0.6,0,0.6,0,1.2,0.6c0.6,1.8,0.6,1.8-1.2,2.4c-8.6,1.2-15.3,4.3-22,8.6
						c-7.3,4.9-13.5,11.6-17.1,20.2c-3.1,6.7-6.7,13.5-11.6,19.6C15.9,391.5,8.6,398.9,0.6,405.6z"/>
					<path d="M128,436.3c0-2.4,0-5.5,0.6-8c0-1.2,0.6-1.8,1.2-3.1c3.1-4.3,4.3-9.2,6.7-14.1c0.6-1.8,1.2-3.7,2.4-5.5
						c1.8-4.3,3.1-8.6,3.1-13.5c0.6-4.3,0.6-8.6,0.6-12.9c0-1.8,0-1.8,1.8-1.8c0.6,0,1.2,0,1.2,1.2c0,7.3,0,15.3-1.8,22.7
						c-0.6,3.1-2.4,6.1-3.7,9.2c-1.8,4.3-3.1,8.6-4.9,12.2c-0.6,0.6-0.6,1.2-1.2,2.4c-1.8,2.4-2.4,5.5-2.4,8.6c0,2.4,0,5.5,0,8
						c0,4.9,2.4,8.6,5.5,11.6c4.3,4.9,10.4,7.3,16.5,9.8c1.2,0.6,1.2,0.6,0.6,1.8c-0.6,1.8-0.6,1.8-1.8,1.2c-5.5-1.8-11-4.3-15.3-8
						c-3.7-3.1-6.7-6.7-8-11.6C128,442.4,128.6,439.3,128,436.3z"/>
					<path d="M103.5,370.1L103.5,370.1c-2.4,1.2-2.4,1.2-3.7-0.6c-8-13.5-26.3-14.1-35.5-5.5c-4.3,4.3-8,9.2-10.4,15.3
						c-2.4,7.3-6.7,14.1-11.6,20.2c-2.4,2.4-4.3,5.5-6.1,8c-0.6,0.6-0.6,0.6-1.2,0c-1.8-1.2-1.8-1.2-0.6-3.1
						c2.4-3.7,5.5-6.7,8.6-10.4c3.7-4.3,6.1-9.2,8-14.1c2.4-6.7,6.1-12.9,11-17.8c5.5-4.9,11.6-6.7,19-6.7c6.1,0,11.6,2.4,15.9,6.1
						C99.8,364,101.7,366.4,103.5,370.1C103.5,369.5,103.5,370.1,103.5,370.1z"/>
					<path d="M80.8,477.3c10.4,0,19.6,3.1,28.2,8c6.1,3.7,11.6,7.3,17.8,11c3.7,2.4,7.3,4.3,11.6,6.1c0.6,0,0.6,0.6,0.6,1.2
						c-0.6,1.8-0.6,1.8-2.4,1.2c-7.3-3.1-14.1-8-20.8-11.6c-4.9-3.1-10.4-6.1-15.9-8.6c-5.5-2.5-11.7-3.6-17.8-3.6
						c-11.6,0-22.7,3.1-32.5,9.2c-0.6,0.6-0.6,0-1.2,0c-1.2-1.8-1.2-1.8,0.6-3.1c9.2-5.5,19-8.6,29.4-9.2
						C79,477.3,80.2,477.3,80.8,477.3z"/>
					<path d="M80.2,503c3.7,0,6.7,0.6,9.8,1.8c1.2,0.6,1.8,0.6,2.4,1.2c4.3,3.1,9.2,5.5,14.1,8c3.7,1.8,7.3,4.3,11,6.7
						c0.6,0.6,0.6,0.6,0,1.2c-1.2,1.8-1.2,1.8-3.1,0.6c-4.3-3.1-9.2-5.5-14.1-8c-3.7-1.8-6.7-3.7-10.4-6.1c-2.4-1.8-5.5-2.4-8.6-2.4
						c-4.3-0.6-8.6-0.6-12.9,1.2c-1.8,0.6-3.7,1.8-5.5,3.1c-6.7,4.9-14.1,9.2-21.4,12.2c-0.6,0-0.6,0-1.2-0.6
						c-0.6-1.8-0.6-1.8,1.2-3.1c7.3-3.1,14.1-6.7,20.2-11.6c4.3-3.1,8.6-4.3,13.5-4.9C78.4,503,79,503,80.2,503z"/>
					<path d="M63.1,403.8c0,0,0,0.6-0.6,0.6c-4.3,7.3-9.8,14.1-15.3,20.8c-8.6,9.8-18.4,17.1-29.4,23.3c-4.3,2.4-8.6,4.9-12.9,7.3
						c-0.6,0.6-1.2,0.6-1.2-0.6c-0.6-1.8-0.6-1.8,1.2-3.1c8.6-4.3,16.5-9.2,24.5-15.3c9.2-6.7,16.5-15.3,23.9-24.5
						c2.4-3.7,4.9-6.7,7.3-10.4c0.6-0.6,0.6-0.6,1.2,0C61.9,402.6,62.5,403.2,63.1,403.8C62.5,403.2,63.1,403.2,63.1,403.8z"/>
					<path d="M89.4,443.6c-2.4,4.3-6.1,8-9.2,11.6c-4.9,5.5-11,10.4-17.1,14.7c-0.6,0.6-0.6,0.6-1.2,0c-1.2-1.8-1.2-1.8,0.6-3.1
						c8.6-6.1,15.9-13.5,22-21.4c1.2-1.8,1.8-3.1,3.1-4.9c0-0.6,0.6-1.2,1.2-1.2c1.2-1.2,3.1-0.6,3.1,1.2c0,1.2,0,2.4,0,3.7
						c0,4.3,0,8.6,1.2,12.9c1.8,5.5,4.9,9.8,9.2,13.5c0.6,0,0.6,0.6,1.2,0.6c-1.8,2.4-1.8,2.4-3.7,0.6c-4.9-4.3-8.6-9.8-9.8-16.5
						c-0.6-3.1-0.6-5.5-0.6-8.6C89.4,445.4,89.4,444.8,89.4,443.6z"/>
					<path d="M78.4,508.5c3.7,0,8,1.2,11.6,3.1c2.4,1.2,4.9,2.4,7.3,4.3c4.3,3.1,9.2,6.1,14.1,8.6c0.6,0,0.6,0.6,0.6,1.2
						c-1.2,1.8-1.2,1.8-3.1,0.6c-4.9-2.4-9.8-5.5-14.7-9.2c-4.3-3.1-9.2-4.9-14.1-6.1c-4.3-0.6-8,0-11,3.1
						c-5.5,4.9-11.6,8.6-18.4,11c-0.6,0-0.6,0-1.2-0.6c-0.6-0.6-0.6-0.6,1.2-1.2c6.1-2.4,11.6-6.1,16.5-10.4
						C70.4,509.7,74.1,508.5,78.4,508.5z"/>
					<path d="M114.5,438.1c0-4.3,0.6-8.6,2.4-12.2c0-0.6,0.6-0.6,1.2-0.6c1.8,0.6,1.8,0.6,1.2,2.4c-2.4,8.6-2.4,17.1,2.4,25.1
						c1.8,3.7,4.9,5.5,8,8c6.7,4.3,14.1,8,21.4,11c0.6,0,0.6,0.6,0.6,1.2c-0.6,1.8-0.6,1.8-2.4,1.2c-8-3.1-15.9-7.3-23.3-12.2
						c-6.1-4.3-9.2-10.4-10.4-17.1C114.5,442.4,114.5,439.9,114.5,438.1z"/>
					<path d="M94.9,499.9c-0.6,0.6-0.6,1.8-1.2,2.4c0,0.6-0.6,0-0.6,0c-4.9-2.4-9.8-3.7-15.3-3.1c-6.7,0.6-12.9,2.4-19,6.7
						c-6.7,4.9-13.5,9.2-20.8,12.9c-0.6,0.6-1.2,0-1.2-0.6c-0.6-1.8-0.6-1.8,0.6-2.4c7.3-4.3,14.7-8.6,22-13.5
						c11-6.7,22.7-8,34.3-3.1C94.3,499.3,94.3,499.9,94.9,499.9z"/>
					<path d="M5.5,361.5c-1.2,0-1.8-0.6-2.4-0.6s0-0.6,0-0.6c3.1-7.3,6.7-14.1,11-20.8c6.1-8.6,13.5-15.9,22.7-21.4
						c0.6-0.6,0.6-0.6,1.2,0c1.2,1.8,1.2,1.8-0.6,3.1C22.7,331,12.3,344.5,5.6,361v0.5H5.5z"/>
					<path d="M146.4,438.1c0-3.7,0.6-6.7,1.8-10.4c2.4-5.5,5.5-11,7.3-17.1c0.6-1.8,1.2-4.3,1.8-6.1c0-0.6,0-0.6,0.6-0.6
						c1.8,0.6,1.8,0.6,1.2,2.4c-1.8,4.9-3.7,9.8-5.5,14.1s-4.3,8.6-4.9,13.5c-0.6,1.8-0.6,4.3,0,6.7c0.6,3.1,2.4,4.9,5.5,4.9
						c0.6,0,0.6,0,0.6,0.6c0,2.4,0,2.4-2.4,1.8c-3.7-0.6-6.7-3.7-7.3-7.3C146.4,439.9,146.4,439.3,146.4,438.1z"/>
					<path d="M64.9,531.8c-0.6-0.6-0.6-1.2-1.2-1.8c0-0.6,0-0.6,0-0.6c3.7-2.4,7.3-4.9,10.4-8c1.8-1.2,4.3-1.2,6.1-0.6
						c1.8,0.6,3.7,1.8,5.5,2.4c4.3,2.4,8,4.3,12.2,6.7c0.6,0.6,0.6,0.6,0.6,1.2c-1.2,1.8-1.2,1.8-3.1,0.6c-4.9-3.1-9.8-5.5-14.7-8
						l0,0c-2.4-1.2-4.3-1.2-6.1,0.6C71.7,527.5,68,530,64.9,531.8z"/>
					<path d="M1.8,436.3C1.8,436.3,1.8,435.6,1.8,436.3c-1.8-2.4-1.8-2.4,0.6-3.7c9.2-5.5,17.8-12.2,25.7-19.6
						c0.6-0.6,1.2-0.6,1.8,0c0.6,1.2,0.6,1.2-0.6,2.4C21.4,422.8,12.2,430.1,1.8,436.3C2.4,435.6,1.8,435.6,1.8,436.3z"/>
					<path d="M82.1,515.3c3.1,0,7.3,1.2,10.4,4.3c3.1,3.1,6.7,5.5,11,6.7c0.6,0,0.6,0.6,0.6,0.6c-0.6,1.8-0.6,1.8-3.1,1.2
						c-3.7-1.8-7.3-3.7-9.8-6.7c-4.3-4.3-12.2-5.5-17.8-1.8c-0.6,0.6-0.6,0-0.6,0c-1.2-1.8-1.2-1.8,0.6-3.1
						C75.3,515.9,77.8,515.3,82.1,515.3z"/>
					<path d="M125.5,517.1c-0.6,0.6-0.6,1.2-1.2,2.4c0,0.6-0.6,0-0.6,0c-5.5-3.1-11.6-6.1-17.1-9.2c-2.4-1.8-5.5-3.1-8-4.9
						c-0.6,0-0.6-0.6,0-1.2c1.2-1.8,1.2-1.8,3.1-0.6C109.6,508.5,117.6,512.8,125.5,517.1C124.9,516.5,124.9,516.5,125.5,517.1z"/>
					<path d="M41.6,494.4C41,495,41,495,41.6,494.4c-6.1,3.7-11.6,6.7-17.8,9.8c0,0-0.6,0.6-0.6,0c-0.6-0.6-0.6-1.2-1.2-1.8
						c0-0.6,0-0.6,0.6-0.6c3.7-1.8,7.3-3.7,11-6.1c1.8-1.2,3.7-1.8,5.5-3.1c0.6-0.6,0.6,0,1.2,0.6C40.4,493.2,41,493.8,41.6,494.4z"
						/>
					<path d="M14.7,372.6C14.7,372.6,14.7,373.2,14.7,372.6c-4.3,5.5-8,10.4-12.2,15.3c-0.6,0.6-0.6,0.6-1.2,0
						c-1.2-1.2-1.2-1.2,0-2.4c3.7-4.3,7.3-9.2,11-13.5c0.6-0.6,0.6-0.6,1.2,0C13.5,372,14.1,372,14.7,372.6L14.7,372.6z"/>
					<path d="M150.7,438.7c0.6-3.1,0.6-6.7,1.8-9.8c0-0.6,0.6-0.6,1.2-0.6c1.8,1.2,1.8,1.2,1.2,3.1c-0.6,2.4-0.6,4.9-1.2,8
						c0,1.2,0,1.8,1.2,1.2s1.2,0,1.8,1.2s0.6,1.2-1.2,1.8h-0.6C152.5,443.6,150.7,441.8,150.7,438.7z"/>
					<path d="M79,529.3c-1.8,0-3.7,1.2-4.3,3.1c-0.6,0.6-0.6,0.6-1.2,0.6l0,0c-1.8-0.6-1.8-0.6-0.6-2.4c3.7-4.9,10.4-4.3,13.5,0.6
						c0,0.6,0,0.6,0,0.6l0,0c-0.6,0.6-1.2,0.6-1.8,0.6s-0.6-0.6-1.2-1.2C82.1,530,80.8,529.3,79,529.3z"/>
					<path d="M140.2,498.7L140.2,498.7c-3.7-1.8-7.3-3.1-10.4-4.9c-0.6,0-0.6-0.6-0.6-1.2c0.6-1.8,0.6-1.8,3.1-1.2
						c3.1,1.2,5.5,2.4,8.6,3.7c0.6,0,0.6,0.6,0.6,1.2C141.5,497.5,140.9,498.1,140.2,498.7C140.9,498.7,140.9,498.7,140.2,498.7z"/>
					<path d="M140.9,324.8L140.9,324.8c-0.6,0.6-1.2,1.2-1.2,1.2c-0.6,0.6-0.6,0.6-1.2,0c-2.4-2.4-4.9-4.9-7.3-7.3
						c-0.6-0.6-0.6-0.6,0-0.6c1.8-1.8,1.8-1.8,3.1,0C136,319.9,138.4,322.3,140.9,324.8C140.9,324.2,140.9,324.2,140.9,324.8z"/>
					<path d="M7.3,469.9c-0.6,0-0.6-0.6-0.6-0.6c-0.6-1.8-0.6-1.8,1.2-2.4c2.4-1.2,4.9-2.4,7.3-4.3c0.6,0,0.6,0,1.2,0
						c0,1.8,0.6,1.8-1.8,3.1c-2.4,1.2-4.3,2.4-6.7,3.7C8,469.9,8,469.9,7.3,469.9z"/>
					<path d="M65.5,525.1C65.5,525.7,64.9,525.7,65.5,525.1c-3.1,1.8-6.1,3.1-9.2,4.3l0,0c-1.2,0-1.2-1.2-1.8-1.8c0-0.6,0-0.6,0-0.6
						c3.1-1.2,6.1-2.4,8.6-3.7h0.6C64.9,523.8,64.9,524.4,65.5,525.1z"/>
					<path d="M93.1,466.9c-0.6-0.6-1.2-0.6-1.8-1.2c-3.1-1.8-4.3-4.9-3.7-8v-0.6c0-0.6,0-1.8-1.2-2.4c-1.2-0.6-1.8,0-2.4,0.6
						c-0.6,0.6-0.6,0.6-1.2,1.2c-2.4,3.7-6.1,6.7-9.8,8.6c-0.6,0-1.2,0.6-1.2,1.2c-0.6,0.6-0.6,1.2-0.6,1.8s0.6,1.2,1.8,1.2
						c0.6,0,1.8,0,2.4,0c3.7-0.6,8-1.2,11.6,0c1.8,0.6,3.1,1.2,4.9,1.2c1.2,0.6,1.8,0,2.4-0.6C94.3,468.7,93.7,468.1,93.1,466.9z
						 M78.4,465c2.4-1.8,4.3-3.7,6.1-6.1c0,2.4,0.6,4.9,2.4,6.7C83.9,465,80.8,465,78.4,465z"/>
					<path d="M79,535.5c-1.8,0-3.7,1.2-4.3,3.1c-0.6,0.6-0.6,0.6-1.2,0.6l0,0c-1.8-0.6-1.8-0.6-0.6-2.4c3.7-4.9,10.4-4.3,13.5,0.6
						c0,0.6,0,0.6,0,0.6l0,0c-0.6,0.6-1.2,0.6-1.8,0.6s-0.6-0.6-1.2-1.2C82.1,536.1,80.8,535.5,79,535.5z"/>
				</g>
			</g>
		</g>
	</g>
</g>
</svg>
