<?xml version="1.0" encoding="utf-8"?>
<!-- Generator: Adobe Illustrator 18.1.0, SVG Export Plug-In . SVG Version: 6.00 Build 0)  -->
<svg version="1.1" id="Layer_1" xmlns="http://www.w3.org/2000/svg" xmlns:xlink="http://www.w3.org/1999/xlink" x="0px" y="0px"
	 viewBox="0 0 97.2 37.8" enable-background="new 0 0 97.2 37.8" xml:space="preserve">
<g>
	<g>
		<g>
			<text transform="matrix(1 0 0 1 30.9895 22.808)" font-family="'GeosansLight'" font-size="29.0556">Taylor</text>
		</g>
		<text transform="matrix(1 0 0 1 34.9328 34.3588)" font-family="'GeosansLight'" font-size="16.741">gps</text>
	</g>
	<g>
		<defs>
			<path id="SVGID_1_" d="M26.3,13.3c0,7.3-11.2,24-13.3,24c-2.5,0-13.3-16.6-13.3-24S5.7,0,13,0S26.3,5.9,26.3,13.3z"/>
		</defs>
		<clipPath id="SVGID_2_">
			<use xlink:href="#SVGID_1_"  overflow="visible"/>
		</clipPath>
		<g clip-path="url(#SVGID_2_)">
			<path d="M-0.2,18.5c0.5-0.2,0.9-0.5,1.3-0.8c0.9-0.6,1.7-1.3,2.5-2c1-0.9,1.7-2,2.3-3.1c0.6-1.1,1.2-2.3,1.8-3.5
				c0-0.1,0.1-0.1,0.2-0.1c0.3,0.1,0.3,0.1,0.2,0.4c-0.6,1.4-1.4,2.7-2.1,4C5.1,14.8,4,16,2.8,17C1.9,17.7,1,18.3,0,18.9
				C-0.1,18.8-0.1,18.7-0.2,18.5C-0.2,18.5-0.2,18.5-0.2,18.5z"/>
			<path d="M13.8-2.2c1.7,0.1,3.4,0.5,4.9,1.1c0.1,0,0.1,0.1,0.1,0.2c-0.1,0.3-0.1,0.3-0.5,0.2c-1.6-0.6-3.3-1-5.1-1
				c-2,0-4,0.3-5.8,1.1c-0.1,0-0.2,0-0.2-0.1C7.1-1.1,7.1-1.1,7.5-1.2c1.5-0.6,3-0.9,4.6-1c0.1,0,0.2,0,0.3,0c0.4,0,0.8,0,1.1,0
				C13.6-2.2,13.7-2.3,13.8-2.2z"/>
			<path d="M13.8-2.2c-0.1,0-0.2,0-0.3,0C13.6-2.3,13.7-2.3,13.8-2.2C13.8-2.2,13.8-2.2,13.8-2.2z"/>
			<path d="M12.4-2.3c-0.1,0.1-0.2,0-0.3,0c0,0,0,0,0,0C12.2-2.3,12.3-2.3,12.4-2.3z"/>
			<path d="M24.9,13.1c0,1.5-0.4,2.9-1,4.3c-0.3,0.6-0.6,1.2-0.9,1.8c-0.3,0.6-0.6,1.2-0.7,1.9c-0.2,1,0.1,1.8,0.8,2.5
				c0.6,0.6,1.3,1,2.1,1.3c0.1,0,0.1,0.1,0.1,0.1c-0.1,0.4-0.1,0.4-0.4,0.2c-1-0.3-1.8-0.9-2.4-1.7c-0.6-0.7-0.8-1.6-0.6-2.6
				c0.1-0.8,0.5-1.5,0.8-2.2c0.5-0.9,0.9-1.8,1.2-2.7c0.4-1.3,0.6-2.7,0.4-4.1c-0.2-1.9-0.8-3.7-1.9-5.4c-0.9-1.3-2-2.4-3.3-3.3
				c-1.2-0.8-2.5-1.4-3.9-1.7c-1.2-0.2-2.4-0.2-3.6,0c-0.8,0.1-1.7,0.3-2.5,0.5c-1.3,0.4-2.4,1.1-3.3,2C5.2,4.6,4.6,5.2,4.1,5.9
				C3.4,6.7,2.9,7.6,2.5,8.6c-0.4,1.2-1.1,2.1-1.9,3c-0.1,0.1-0.1,0.1-0.2,0c-0.3-0.2-0.3-0.2,0-0.5c0.8-0.9,1.4-1.9,1.8-3
				c0.3-1,0.9-1.9,1.6-2.8C4.5,4.6,5.2,3.9,6,3.2c1.1-1,2.4-1.5,3.9-1.8C10.7,1.2,11.5,1,12.4,1c1.4-0.1,2.8,0,4.1,0.4
				c1.8,0.6,3.3,1.5,4.6,2.8c2,1.9,3.1,4.2,3.6,6.8C24.9,11.7,24.9,12.4,24.9,13.1z"/>
			<path d="M13.2,5.1c1.9,0,3.6,0.6,4.9,1.9c1.4,1.3,2.3,2.9,2.5,4.8c0.2,2-0.3,3.9-1.4,5.6c-0.7,1.1-1.1,2.3-1.2,3.7
				c0,1.1,0.2,2.1,0.7,3c0.4,0.6,0.9,1.1,1.5,1.6c1.3,1,2.7,1.8,4.2,2.6c0.1,0.1,0.2,0.1,0.1,0.3c-0.1,0.3-0.1,0.3-0.4,0.1
				c-1.5-0.8-3-1.7-4.4-2.8c-1.1-0.9-1.8-2-2.1-3.4c-0.2-1.4,0-2.7,0.5-4c0.2-0.5,0.4-0.9,0.7-1.3c0.7-0.9,1-2,1.3-3.1
				c0.6-3.1-1-5.9-3-7.4c-1.1-0.7-2.3-1.1-3.6-1.1c-1.1,0-2.1,0.1-3.1,0.5C9.3,6.6,8.5,7.3,7.8,8.2c-1.1,1.4-2,2.8-2.8,4.4
				c-0.8,1.7-2.1,3.1-3.6,4.2c-0.4,0.3-0.8,0.5-1.2,0.8c-0.1,0.1-0.1,0-0.2,0c-0.2-0.3-0.2-0.3,0.1-0.5c1.5-1,2.9-2.2,3.9-3.7
				c0.4-0.7,0.7-1.4,1.1-2C5.9,9.9,6.8,8.5,8,7.3c1-1.1,2.3-1.8,3.8-2C12.2,5.1,12.7,5.1,13.2,5.1z"/>
			<path d="M15.5,21.9c0-1.9,0.5-3.7,1.4-5.5c0.2-0.3,0.3-0.6,0.5-0.9c0.5-0.8,0.7-1.7,0.7-2.7c0-1.2-0.4-2.2-1.2-3.1
				c-0.9-1.1-2-1.7-3.4-1.8c-1.2-0.1-2.4,0.2-3.4,1c-0.9,0.7-1.5,1.5-2,2.5c-0.7,1.5-1.5,2.9-2.6,4.2c-0.8,1-1.8,1.9-2.8,2.7
				c-0.8,0.7-1.7,1.3-2.6,1.9c-0.1,0-0.1,0.1-0.2,0c-0.2-0.3-0.2-0.3,0.1-0.5c1.8-1.2,3.5-2.5,5-4.1c0.9-1,1.6-2.2,2.2-3.3
				c0.3-0.6,0.5-1.2,0.9-1.7c1-1.7,2.4-2.8,4.4-3.1c1.7-0.2,3.1,0.3,4.3,1.5c0.8,0.8,1.4,1.8,1.6,2.9c0.3,1.4,0,2.6-0.7,3.8
				c-0.8,1.4-1.4,2.9-1.7,4.5C16.1,20.5,16,21,16,21.5c0,0.7,0,1.5,0.1,2.2c0.2,1.1,0.8,2.1,1.6,2.9c0.6,0.7,1.4,1.2,2.2,1.6
				c1.2,0.7,2.4,1.3,3.6,2c0.1,0.1,0.1,0.1,0.1,0.2c-0.2,0.3-0.2,0.3-0.4,0.1c-1.4-0.8-2.8-1.6-4.2-2.4c-1.4-0.8-2.4-2-3-3.5
				C15.6,23.9,15.5,23.1,15.5,21.9z"/>
			<path d="M16.5,12.8c0,0.6-0.2,1.2-0.5,1.8c-0.6,1.3-1.3,2.6-2,3.8c-1.1,2-2.6,3.7-4.3,5.2c-2.4,2-4.9,3.8-7.7,5.2
				c-0.1,0.1-0.2,0.1-0.2-0.1c-0.1-0.3-0.1-0.3,0.1-0.4c2.6-1.3,5-3,7.3-4.9c2.1-1.7,3.7-3.8,4.9-6.2c0.5-1.1,1.1-2.1,1.6-3.2
				c0.9-2-0.6-3.8-2.1-4.2c-0.9-0.2-1.7,0.1-2.5,0.7c-0.4,0.3-0.7,0.7-0.9,1.2c-0.5,1.1-1.1,2.1-1.6,3.1C8,16,7.1,17.1,6.2,18
				c-1.2,1.1-2.4,2.2-3.7,3.2c-0.6,0.5-1.3,0.9-1.9,1.3c-0.1,0.1-0.2,0-0.2-0.1c-0.2-0.3-0.2-0.3,0.1-0.4c1.8-1.1,3.4-2.3,4.9-3.8
				c0.7-0.7,1.4-1.4,2-2.2c0.6-0.7,1-1.5,1.5-2.3c0.5-0.8,0.9-1.7,1.3-2.6c0.5-1,1.3-1.6,2.4-1.8c1-0.2,1.8,0.1,2.6,0.7
				c0.7,0.6,1.2,1.4,1.3,2.3C16.5,12.5,16.5,12.6,16.5,12.8z"/>
			<path d="M15,12.7c0-0.6-0.3-1-0.8-1.4c-0.2-0.2-0.5-0.4-0.9-0.5c-0.5-0.1-0.9,0.1-1.3,0.4c-0.4,0.3-0.7,0.7-0.9,1.1
				c-0.3,0.7-0.7,1.3-1,2c-0.3,0.8-0.8,1.4-1.3,2.1c-0.9,1-1.7,2.1-2.6,3c-1.3,1.4-2.9,2.5-4.6,3.4c-0.3,0.2-0.7,0.3-1,0.5
				c-0.1,0-0.1,0-0.2-0.1c-0.2-0.3-0.2-0.3,0.1-0.5c1.9-1,3.6-2.1,5.1-3.6c1.2-1.3,2.4-2.6,3.4-4c0.3-0.4,0.5-1,0.8-1.5
				c0.3-0.6,0.6-1.3,0.9-1.9c0.3-0.5,0.7-1,1.2-1.3c0.7-0.4,1.5-0.5,2.2,0c0.7,0.4,1.1,1.1,1.2,1.9c0.1,0.4-0.1,0.8-0.2,1.2
				c-0.4,1.2-1,2.3-1.7,3.3c-0.9,1.3-1.8,2.6-2.7,3.8c-0.5,0.7-1.2,1.3-1.8,1.9c-2.2,2-4.6,3.7-7.3,4.9c-0.2,0.1-0.2,0.1-0.3-0.1
				c-0.1-0.2-0.1-0.2,0.1-0.3c2.7-1.2,5-2.8,7.2-4.8c1.2-1.1,2.1-2.3,3-3.6c0.6-0.9,1.3-1.8,1.9-2.7c0.6-0.9,1-1.9,1.3-3
				C14.9,13,15,12.9,15,12.7z"/>
			<path d="M25.8,12.8c0,1.2-0.1,2.5-0.5,3.7c-0.3,1-0.8,2-1.3,2.9c-0.4,0.7-0.7,1.5-0.7,2.3c0,0.5,0.1,1,0.5,1.4
				c0.4,0.4,0.8,0.5,1.3,0.6c0.1,0,0.1,0.1,0.1,0.2c-0.1,0.3,0,0.3-0.4,0.3c-0.8-0.2-1.5-0.6-1.8-1.4c-0.3-0.6-0.3-1.2-0.2-1.9
				c0.2-0.9,0.6-1.7,1-2.5c0.6-1.3,1.1-2.6,1.3-4c0.3-2.5,0-4.9-1-7.2c-0.7-1.5-1.7-2.7-2.9-3.7c-0.9-0.7-1.8-1.5-2.9-2
				c-1.3-0.6-2.6-1-4.1-1.2C12,0.2,9.7,0.7,7.6,1.7c-0.1,0-0.1,0-0.2,0C7.3,1.3,7.3,1.3,7.6,1.2C9.2,0.4,10.9,0,12.7,0
				c2.1-0.1,4.1,0.4,6,1.3c1,0.5,1.9,1.2,2.8,1.9c1,0.8,1.9,1.7,2.5,2.8c0.9,1.4,1.4,2.9,1.7,4.6C25.8,11.2,25.9,12,25.8,12.8z"/>
			<path d="M13.1,6.7c-1.5,0-2.8,0.5-4,1.4C9,8.2,9,8.2,8.9,8c-0.2-0.2-0.2-0.2,0-0.3c1.3-1,2.8-1.6,4.5-1.5
				c3.1,0.1,5.6,2.4,6.1,5.4c0.2,1.2,0,2.3-0.4,3.4c-0.4,1-0.8,2-1.3,3c-0.8,1.7-1.1,3.5-0.6,5.3c0.3,1,0.9,1.9,1.7,2.6
				c1.2,1.1,2.5,2.1,4.1,2.9c0.3,0.2,0.7,0.3,1.1,0.5c0.1,0,0.1,0.1,0.1,0.1c-0.1,0.3-0.1,0.3-0.5,0.2c-1.5-0.6-2.9-1.5-4.2-2.6
				c-0.6-0.5-1.3-1.1-1.8-1.7c-0.8-1-1.1-2.2-1.2-3.5c-0.1-1.6,0.3-3,1-4.4c0.6-1.1,1.1-2.3,1.4-3.6c0.4-1.6,0.1-3.2-0.8-4.6
				c-1-1.6-2.5-2.5-4.4-2.7C13.5,6.7,13.3,6.7,13.1,6.7z"/>
			<path d="M13.5,2c2.4,0,4.8,0.9,6.8,2.8c1.4,1.2,2.3,2.8,2.9,4.5c0.2,0.4,0.3,0.8,0.4,1.3c0,0.1,0,0.1-0.1,0.2
				c-0.3,0.1-0.3,0.1-0.4-0.3c-0.7-2.6-2-4.7-4.3-6.3c-1.3-0.9-2.8-1.4-4.4-1.6C11.2,2.2,8.4,3.1,6,5.3C4.7,6.5,3.8,7.9,3.2,9.6
				c0,0.1-0.1,0.2-0.2,0.1C2.7,9.6,2.7,9.6,2.8,9.4c1-2.7,2.8-4.8,5.3-6.1C9.7,2.4,11.4,2,13.5,2z"/>
			<path d="M13.2,2.9c2.1,0,4.1,0.8,5.9,2.2c0.1,0.1,0.1,0.1,0,0.2c-0.2,0.3-0.2,0.3-0.5,0.1c-1.3-1-2.8-1.7-4.5-1.9
				c-1.7-0.2-3.3,0.1-4.8,0.8C7.9,4.9,6.7,6,5.7,7.2c-0.7,0.9-1.2,2-1.7,3c-0.6,1.4-1.6,2.7-2.7,3.8c-0.3,0.3-0.7,0.6-1,0.9
				c-0.1,0.1-0.1,0.1-0.2,0c-0.1-0.1-0.2-0.2-0.2-0.3c0-0.1,0.1-0.1,0.2-0.2c1.3-1,2.3-2.3,3.1-3.7c0.3-0.6,0.6-1.3,0.9-2
				c1.1-2,2.5-3.6,4.6-4.7C10.1,3.3,11.6,3,13.2,2.9z"/>
			<path d="M17,12.5c0-0.2,0-0.4,0-0.6c0-0.1,0-0.1,0.1-0.1c0.4-0.1,0.4-0.1,0.4,0.3c0.1,1.3-0.2,2.4-0.8,3.6
				c-0.7,1.3-1.5,2.6-2.3,3.9c-0.8,1.3-1.8,2.4-2.8,3.5c-1.7,1.8-3.6,3.4-5.7,4.8c-1.1,0.7-2.3,1.4-3.5,2c-0.1,0.1-0.1,0-0.2-0.1
				C2,29.5,2,29.5,2.3,29.3c2.9-1.5,5.6-3.4,8-5.7c1.3-1.3,2.6-2.6,3.6-4.1c0.7-1.1,1.4-2.2,2-3.4c0.3-0.5,0.6-1.1,0.8-1.6
				C16.9,13.8,17,13.2,17,12.5z"/>
			<path d="M22.7,12.3c0,1.2-0.3,2.6-0.7,3.9c-0.3,1-0.7,1.9-1.2,2.7c-0.8,1.6-0.8,3.2,0.1,4.7c0.3,0.6,0.9,1,1.4,1.4
				c0.8,0.6,1.7,1.1,2.6,1.3c0.1,0,0.1,0,0.1,0.1c-0.1,0.4-0.1,0.4-0.4,0.2c-1.4-0.5-2.6-1.2-3.5-2.2c-0.9-0.9-1.2-2-1.3-3.2
				c0-1,0.2-1.9,0.7-2.7c0.9-1.6,1.5-3.4,1.7-5.3c0.3-2.2-0.3-4.2-1.7-5.9c-0.2-0.3-0.4-0.5-0.6-0.7c-0.1-0.1-0.1-0.1,0-0.2
				c0.3-0.2,0.3-0.2,0.5,0c0.9,1,1.6,2.2,2,3.5C22.6,10.7,22.7,11.4,22.7,12.3z"/>
			<path d="M20.5,1.3c-0.1,0.1-0.2,0.2-0.3,0.3c0,0,0,0-0.1,0c-1-0.8-2.1-1.2-3.3-1.5c-0.8-0.2-1.5-0.4-2.3-0.5
				c-2.3-0.3-4.6-0.1-6.7,0.9C7,0.8,6.1,1.2,5.3,1.6c-1.1,0.6-2,1.5-2.8,2.6C1.9,4.9,1.4,5.7,1,6.5C1,6.6,0.9,6.6,0.8,6.6
				C0.5,6.4,0.5,6.4,0.7,6.2c0.8-1.5,1.8-2.9,3-4c0.6-0.5,1.3-1,2-1.3c1-0.5,2.1-1,3.1-1.4c1.3-0.5,2.7-0.6,4-0.6
				C15-1,17.1-0.5,19,0.3C19.5,0.5,20,0.8,20.5,1.3C20.5,1.2,20.5,1.2,20.5,1.3z"/>
			<path d="M14.4,12.8c0,0.4-0.1,0.7-0.3,1c-0.8,1.4-1.5,2.7-2.4,4c-0.6,0.9-1.3,1.7-2,2.5c-1.6,2-3.6,3.6-5.8,4.9
				c-0.1,0.1-0.1,0-0.2,0C3.6,25,3.6,25,3.9,24.8c1.8-1.1,3.4-2.4,4.9-3.9c0.8-0.9,1.5-1.8,2.2-2.7c0.7-0.8,1.2-1.8,1.7-2.7
				c0.4-0.6,0.7-1.2,1-1.8c0.1-0.2,0.2-0.5,0.2-0.8c0-0.5-0.3-0.9-0.8-1c-0.5-0.1-0.9,0.2-1,0.7c-0.2,0.8-0.6,1.5-1,2.2
				C11,14.9,11,15,10.9,14.9c-0.3-0.2-0.3-0.2-0.1-0.4c0.4-0.6,0.7-1.3,0.9-2c0.3-1.1,1.5-1.4,2.3-0.7
				C14.3,12.1,14.4,12.4,14.4,12.8z"/>
			<path d="M13.1,29.1c1.4,0,2.8,0.4,4,1.1c1.6,0.9,3.1,1.8,4.7,2.7c0.1,0.1,0.1,0.1,0.1,0.2c-0.2,0.3-0.2,0.3-0.4,0.1
				c-1.5-0.9-3-1.7-4.6-2.6c-1.2-0.7-2.5-1-3.9-1c-1.2,0-2.2,0.3-3.3,0.8c-0.7,0.3-1.4,0.8-2.1,1.2c-1,0.6-2,1.1-3,1.6
				c-0.1,0-0.1,0-0.2-0.1c0-0.1-0.1-0.2-0.1-0.3c0-0.1,0.2-0.1,0.3-0.2c1.3-0.7,2.6-1.4,3.8-2.2c1.1-0.7,2.3-1.2,3.5-1.3
				C12.3,29.1,12.7,29.1,13.1,29.1z"/>
			<path d="M21.7,12.9c0,2-0.6,3.9-1.7,5.5c-0.1,0.1-0.1,0.1-0.2,0c-0.2-0.2-0.2-0.2-0.1-0.4c1-1.4,1.5-3,1.6-4.8
				c0.1-2.2-0.5-4.3-2-6c-1.1-1.4-2.6-2.2-4.4-2.5c-0.4-0.1-0.8-0.1-1.2-0.1c-0.1,0-0.1,0-0.1-0.1c0-0.4,0-0.4,0.4-0.3
				c3.4,0.2,5.7,1.9,7.1,5C21.5,10.4,21.7,11.6,21.7,12.9z"/>
			<path d="M20.4,29.8C20.4,29.9,20.4,29.9,20.4,29.8c-0.1,0.1-0.2,0.2-0.2,0.3c-0.1,0.1-0.1,0.1-0.2,0c-1.5-1.2-3.1-2-5-2.4
				c-2.1-0.4-4.2-0.2-6.2,0.7c-0.6,0.3-1.2,0.7-1.7,1c-1.2,0.8-2.5,1.4-3.8,2c-0.1,0-0.2,0-0.2-0.1C3,31.1,3,31.1,3.3,30.9
				c1.6-0.7,3-1.5,4.5-2.4c1.2-0.8,2.6-1.3,4.1-1.4C15,26.8,17.8,27.8,20.4,29.8C20.3,29.8,20.4,29.8,20.4,29.8z"/>
			<path d="M13.3,12.9c0,0,0,0.1,0,0.1c-1.2,2.6-2.8,5-4.7,7.1c-1.3,1.4-2.7,2.8-4.4,3.9c-1,0.7-2,1.3-3.1,1.8c-0.1,0-0.1,0-0.2-0.1
				c-0.1-0.3-0.1-0.3,0.2-0.5c2.1-1,3.9-2.3,5.6-3.9c1.6-1.5,3-3.1,4.2-5c0.7-1.1,1.4-2.3,2-3.5c0.1-0.1,0.1-0.2,0.2-0.1
				C13.1,12.8,13.2,12.8,13.3,12.9C13.2,12.8,13.3,12.8,13.3,12.9z"/>
			<path d="M13.1,30.1c0.9,0,1.7,0.2,2.5,0.6c1.4,0.7,2.6,1.4,3.9,2.2c0.5,0.3,1.1,0.6,1.6,0.9c0.1,0.1,0.1,0.1,0.1,0.2
				c-0.2,0.3-0.2,0.3-0.4,0.1c-1.2-0.7-2.5-1.4-3.7-2.1c-0.7-0.4-1.4-0.8-2.2-1.1c-0.8-0.3-1.6-0.4-2.5-0.3
				c-1.2,0.1-2.2,0.6-3.2,1.2c-1.3,0.8-2.6,1.5-4,2.2c-0.1,0-0.1,0-0.2-0.1C5,33.7,5,33.7,5.3,33.5c1.5-0.7,2.9-1.5,4.3-2.4
				C10.6,30.5,11.8,30.2,13.1,30.1z"/>
			<path d="M15.6,18.9C15.6,19,15.6,19,15.6,18.9c-0.5,1.4-1.2,2.5-2.1,3.5c-2.1,2.3-4.4,4.3-6.9,6.1c-1.2,0.8-2.4,1.5-3.8,2
				c-0.1,0-0.1,0-0.2-0.1c-0.1-0.3-0.1-0.3,0.2-0.4c1.7-0.6,3.3-1.6,4.7-2.7c1.6-1.3,3.1-2.6,4.6-4.1c0.8-0.8,1.6-1.6,2.2-2.6
				c0.3-0.6,0.6-1.1,0.8-1.8c0.1-0.1,0.1-0.2,0.2-0.1C15.5,18.8,15.5,18.8,15.6,18.9C15.6,18.9,15.7,18.9,15.6,18.9z"/>
			<path d="M0.1,16.4c-0.1-0.1-0.2-0.2-0.3-0.3c0-0.1,0.2-0.2,0.3-0.3c2.1-1.7,3.6-3.8,4.8-6.2c0.4-0.9,0.9-1.7,1.6-2.4
				c1-1.1,2.3-1.9,3.7-2.4c0.5-0.2,1.1-0.4,1.7-0.5c0.1,0,0.1,0,0.2,0.1c0.1,0.3,0.1,0.3-0.2,0.4C10.5,5,9.4,5.5,8.3,6.2
				C7.1,7,6.1,8.1,5.5,9.5c-0.5,1.1-1.1,2.2-1.9,3.2C2.6,14.1,1.4,15.3,0.1,16.4z"/>
			<path d="M20.9,21.4c0-0.4,0-0.9,0.1-1.3c0-0.2,0.1-0.3,0.2-0.5c0.5-0.7,0.7-1.5,1.1-2.3c0.1-0.3,0.2-0.6,0.4-0.9
				c0.3-0.7,0.5-1.4,0.5-2.2c0.1-0.7,0.1-1.4,0.1-2.1c0-0.3,0-0.3,0.3-0.3c0.1,0,0.2,0,0.2,0.2c0,1.2,0,2.5-0.3,3.7
				c-0.1,0.5-0.4,1-0.6,1.5c-0.3,0.7-0.5,1.4-0.8,2c-0.1,0.1-0.1,0.2-0.2,0.4c-0.3,0.4-0.4,0.9-0.4,1.4c0,0.4,0,0.9,0,1.3
				c0,0.8,0.4,1.4,0.9,1.9c0.7,0.8,1.7,1.2,2.7,1.6c0.2,0.1,0.2,0.1,0.1,0.3c-0.1,0.3-0.1,0.3-0.3,0.2c-0.9-0.3-1.8-0.7-2.5-1.3
				c-0.6-0.5-1.1-1.1-1.3-1.9C20.9,22.4,21,21.9,20.9,21.4z"/>
			<path d="M16.9,10.6C16.9,10.6,16.9,10.6,16.9,10.6c-0.4,0.2-0.4,0.2-0.6-0.1C15,8.3,12,8.2,10.5,9.6c-0.7,0.7-1.3,1.5-1.7,2.5
				c-0.4,1.2-1.1,2.3-1.9,3.3c-0.4,0.4-0.7,0.9-1,1.3c-0.1,0.1-0.1,0.1-0.2,0c-0.3-0.2-0.3-0.2-0.1-0.5c0.4-0.6,0.9-1.1,1.4-1.7
				c0.6-0.7,1-1.5,1.3-2.3c0.4-1.1,1-2.1,1.8-2.9c0.9-0.8,1.9-1.1,3.1-1.1c1,0,1.9,0.4,2.6,1C16.3,9.6,16.6,10,16.9,10.6
				C16.9,10.5,16.9,10.6,16.9,10.6z"/>
			<path d="M13.2,28.1c1.7,0,3.2,0.5,4.6,1.3c1,0.6,1.9,1.2,2.9,1.8c0.6,0.4,1.2,0.7,1.9,1c0.1,0,0.1,0.1,0.1,0.2
				c-0.1,0.3-0.1,0.3-0.4,0.2c-1.2-0.5-2.3-1.3-3.4-1.9c-0.8-0.5-1.7-1-2.6-1.4c-0.9-0.4-1.9-0.6-2.9-0.6c-1.9,0-3.7,0.5-5.3,1.5
				c-0.1,0.1-0.1,0-0.2,0c-0.2-0.3-0.2-0.3,0.1-0.5c1.5-0.9,3.1-1.4,4.8-1.5C12.9,28.1,13.1,28.1,13.2,28.1z"/>
			<path d="M13.1,32.3c0.6,0,1.1,0.1,1.6,0.3c0.2,0.1,0.3,0.1,0.4,0.2c0.7,0.5,1.5,0.9,2.3,1.3c0.6,0.3,1.2,0.7,1.8,1.1
				c0.1,0.1,0.1,0.1,0,0.2c-0.2,0.3-0.2,0.3-0.5,0.1c-0.7-0.5-1.5-0.9-2.3-1.3c-0.6-0.3-1.1-0.6-1.7-1c-0.4-0.3-0.9-0.4-1.4-0.4
				c-0.7-0.1-1.4-0.1-2.1,0.2c-0.3,0.1-0.6,0.3-0.9,0.5c-1.1,0.8-2.3,1.5-3.5,2c-0.1,0-0.1,0-0.2-0.1c-0.1-0.3-0.1-0.3,0.2-0.5
				c1.2-0.5,2.3-1.1,3.3-1.9c0.7-0.5,1.4-0.7,2.2-0.8C12.8,32.3,12.9,32.3,13.1,32.3z"/>
			<path d="M10.3,16.1c0,0,0,0.1-0.1,0.1c-0.7,1.2-1.6,2.3-2.5,3.4c-1.4,1.6-3,2.8-4.8,3.8c-0.7,0.4-1.4,0.8-2.1,1.2
				c-0.1,0.1-0.2,0.1-0.2-0.1c-0.1-0.3-0.1-0.3,0.2-0.5c1.4-0.7,2.7-1.5,4-2.5c1.5-1.1,2.7-2.5,3.9-4c0.4-0.6,0.8-1.1,1.2-1.7
				c0.1-0.1,0.1-0.1,0.2,0C10.1,15.9,10.2,16,10.3,16.1C10.2,16,10.3,16,10.3,16.1z"/>
			<path d="M14.6,22.6c-0.4,0.7-1,1.3-1.5,1.9c-0.8,0.9-1.8,1.7-2.8,2.4c-0.1,0.1-0.1,0.1-0.2,0c-0.2-0.3-0.2-0.3,0.1-0.5
				c1.4-1,2.6-2.2,3.6-3.5c0.2-0.3,0.3-0.5,0.5-0.8c0-0.1,0.1-0.2,0.2-0.2c0.2-0.2,0.5-0.1,0.5,0.2c0,0.2,0,0.4,0,0.6
				c0,0.7,0,1.4,0.2,2.1c0.3,0.9,0.8,1.6,1.5,2.2c0.1,0,0.1,0.1,0.2,0.1c-0.3,0.4-0.3,0.4-0.6,0.1c-0.8-0.7-1.4-1.6-1.6-2.7
				c-0.1-0.5-0.1-0.9-0.1-1.4C14.6,22.9,14.6,22.8,14.6,22.6z"/>
			<path d="M12.8,33.2c0.6,0,1.3,0.2,1.9,0.5c0.4,0.2,0.8,0.4,1.2,0.7c0.7,0.5,1.5,1,2.3,1.4c0.1,0,0.1,0.1,0.1,0.2
				c-0.2,0.3-0.2,0.3-0.5,0.1c-0.8-0.4-1.6-0.9-2.4-1.5c-0.7-0.5-1.5-0.8-2.3-1c-0.7-0.1-1.3,0-1.8,0.5c-0.9,0.8-1.9,1.4-3,1.8
				c-0.1,0-0.1,0-0.2-0.1C8,35.7,8,35.7,8.3,35.6c1-0.4,1.9-1,2.7-1.7C11.5,33.4,12.1,33.2,12.8,33.2z"/>
			<path d="M18.7,21.7c0-0.7,0.1-1.4,0.4-2c0-0.1,0.1-0.1,0.2-0.1c0.3,0.1,0.3,0.1,0.2,0.4c-0.4,1.4-0.4,2.8,0.4,4.1
				c0.3,0.6,0.8,0.9,1.3,1.3c1.1,0.7,2.3,1.3,3.5,1.8c0.1,0,0.1,0.1,0.1,0.2c-0.1,0.3-0.1,0.3-0.4,0.2c-1.3-0.5-2.6-1.2-3.8-2
				c-1-0.7-1.5-1.7-1.7-2.8C18.7,22.4,18.7,22,18.7,21.7z"/>
			<path d="M15.5,31.8c-0.1,0.1-0.1,0.3-0.2,0.4c0,0.1-0.1,0-0.1,0c-0.8-0.4-1.6-0.6-2.5-0.5c-1.1,0.1-2.1,0.4-3.1,1.1
				c-1.1,0.8-2.2,1.5-3.4,2.1c-0.1,0.1-0.2,0-0.2-0.1c-0.1-0.3-0.1-0.3,0.1-0.4c1.2-0.7,2.4-1.4,3.6-2.2c1.8-1.1,3.7-1.3,5.6-0.5
				C15.4,31.7,15.4,31.8,15.5,31.8z"/>
			<path d="M0.9,9.2C0.7,9.2,0.6,9.1,0.5,9.1c-0.1,0,0-0.1,0-0.1C1,7.8,1.6,6.7,2.3,5.6C3.3,4.2,4.5,3,6,2.1C6.1,2,6.1,2,6.2,2.1
				c0.2,0.3,0.2,0.3-0.1,0.5C3.7,4.2,2,6.4,0.9,9.1C0.9,9.1,0.9,9.2,0.9,9.2z"/>
			<path d="M23.9,21.7c0-0.6,0.1-1.1,0.3-1.7c0.4-0.9,0.9-1.8,1.2-2.8c0.1-0.3,0.2-0.7,0.3-1c0-0.1,0-0.1,0.1-0.1
				c0.3,0.1,0.3,0.1,0.2,0.4c-0.3,0.8-0.6,1.6-0.9,2.3c-0.3,0.7-0.7,1.4-0.8,2.2c-0.1,0.3-0.1,0.7,0,1.1c0.1,0.5,0.4,0.8,0.9,0.8
				c0.1,0,0.1,0,0.1,0.1c0,0.4,0,0.4-0.4,0.3c-0.6-0.1-1.1-0.6-1.2-1.2C23.9,22,23.9,21.9,23.9,21.7z"/>
			<path d="M10.6,37c-0.1-0.1-0.1-0.2-0.2-0.3c0-0.1,0-0.1,0-0.1c0.6-0.4,1.2-0.8,1.7-1.3c0.3-0.2,0.7-0.2,1-0.1
				c0.3,0.1,0.6,0.3,0.9,0.4c0.7,0.4,1.3,0.7,2,1.1c0.1,0.1,0.1,0.1,0.1,0.2c-0.2,0.3-0.2,0.3-0.5,0.1c-0.8-0.5-1.6-0.9-2.4-1.3
				c0,0,0,0,0,0c-0.4-0.2-0.7-0.2-1,0.1C11.7,36.3,11.1,36.7,10.6,37z"/>
			<path d="M0.3,21.4C0.3,21.4,0.3,21.3,0.3,21.4C0,21,0,21,0.4,20.8c1.5-0.9,2.9-2,4.2-3.2c0.1-0.1,0.2-0.1,0.3,0
				C5,17.8,5,17.8,4.8,18C3.5,19.2,2,20.4,0.3,21.4C0.4,21.3,0.3,21.3,0.3,21.4z"/>
			<path d="M13.4,34.3c0.5,0,1.2,0.2,1.7,0.7c0.5,0.5,1.1,0.9,1.8,1.1c0.1,0,0.1,0.1,0.1,0.1c-0.1,0.3-0.1,0.3-0.5,0.2
				c-0.6-0.3-1.2-0.6-1.6-1.1c-0.7-0.7-2-0.9-2.9-0.3c-0.1,0.1-0.1,0-0.1,0c-0.2-0.3-0.2-0.3,0.1-0.5C12.3,34.4,12.7,34.3,13.4,34.3
				z"/>
			<path d="M20.5,34.6c-0.1,0.1-0.1,0.2-0.2,0.4c0,0.1-0.1,0-0.1,0c-0.9-0.5-1.9-1-2.8-1.5c-0.4-0.3-0.9-0.5-1.3-0.8
				c-0.1,0-0.1-0.1,0-0.2c0.2-0.3,0.2-0.3,0.5-0.1c1.3,0.8,2.6,1.5,3.9,2.2C20.4,34.5,20.4,34.5,20.5,34.6z"/>
			<path d="M6.8,30.9C6.7,31,6.7,31,6.8,30.9c-1,0.6-1.9,1.1-2.9,1.6c0,0-0.1,0.1-0.1,0c-0.1-0.1-0.1-0.2-0.2-0.3
				c0-0.1,0-0.1,0.1-0.1c0.6-0.3,1.2-0.6,1.8-1c0.3-0.2,0.6-0.3,0.9-0.5c0.1-0.1,0.1,0,0.2,0.1C6.6,30.7,6.7,30.8,6.8,30.9z"/>
			<path d="M2.4,11C2.4,11,2.4,11.1,2.4,11c-0.7,0.9-1.3,1.7-2,2.5c-0.1,0.1-0.1,0.1-0.2,0C0,13.3,0,13.3,0.2,13.1
				c0.6-0.7,1.2-1.5,1.8-2.2c0.1-0.1,0.1-0.1,0.2,0C2.2,10.9,2.3,10.9,2.4,11C2.4,11,2.4,11,2.4,11z"/>
			<path d="M24.6,21.8c0.1-0.5,0.1-1.1,0.3-1.6c0-0.1,0.1-0.1,0.2-0.1c0.3,0.2,0.3,0.2,0.2,0.5c-0.1,0.4-0.1,0.8-0.2,1.3
				c0,0.2,0,0.3,0.2,0.2c0.2-0.1,0.2,0,0.3,0.2c0.1,0.2,0.1,0.2-0.2,0.3c0,0-0.1,0-0.1,0C24.9,22.6,24.6,22.3,24.6,21.8z"/>
			<path d="M12.9,36.6c-0.3,0-0.6,0.2-0.7,0.5c-0.1,0.1-0.1,0.1-0.2,0.1c0,0,0,0,0,0c-0.3-0.1-0.3-0.1-0.1-0.4
				c0.6-0.8,1.7-0.7,2.2,0.1c0,0.1,0,0.1,0,0.1c0,0,0,0,0,0c-0.1,0.1-0.2,0.1-0.3,0.1c-0.1,0-0.1-0.1-0.2-0.2
				C13.4,36.7,13.2,36.6,12.9,36.6z"/>
			<path d="M22.9,31.6C22.9,31.6,22.9,31.6,22.9,31.6c-0.6-0.3-1.2-0.5-1.7-0.8c-0.1,0-0.1-0.1-0.1-0.2c0.1-0.3,0.1-0.3,0.5-0.2
				c0.5,0.2,0.9,0.4,1.4,0.6c0.1,0,0.1,0.1,0.1,0.2C23.1,31.4,23,31.5,22.9,31.6C23,31.6,23,31.6,22.9,31.6z"/>
			<path d="M23,3.2C23,3.2,23,3.2,23,3.2c-0.1,0.1-0.2,0.2-0.2,0.2c-0.1,0.1-0.1,0.1-0.2,0c-0.4-0.4-0.8-0.8-1.2-1.2
				c-0.1-0.1-0.1-0.1,0-0.1c0.3-0.3,0.3-0.3,0.5,0C22.2,2.4,22.6,2.8,23,3.2C23,3.1,23,3.1,23,3.2z"/>
			<path d="M1.2,26.9c-0.1,0-0.1-0.1-0.1-0.1C1,26.5,1,26.5,1.3,26.4c0.4-0.2,0.8-0.4,1.2-0.7c0.1,0,0.1,0,0.2,0
				C2.7,26,2.8,26,2.4,26.2c-0.4,0.2-0.7,0.4-1.1,0.6C1.3,26.9,1.3,26.9,1.2,26.9z"/>
			<path d="M10.7,35.9C10.7,36,10.6,36,10.7,35.9c-0.5,0.3-1,0.5-1.5,0.7c0,0,0,0,0,0C9,36.6,9,36.4,8.9,36.3c0-0.1,0-0.1,0-0.1
				c0.5-0.2,1-0.4,1.4-0.6c0,0,0.1,0,0.1,0C10.6,35.7,10.6,35.8,10.7,35.9z"/>
			<path d="M15.2,26.4c-0.1-0.1-0.2-0.1-0.3-0.2c-0.5-0.3-0.7-0.8-0.6-1.3c0,0,0-0.1,0-0.1c0-0.1,0-0.3-0.2-0.4
				c-0.2-0.1-0.3,0-0.4,0.1c-0.1,0.1-0.1,0.1-0.2,0.2c-0.4,0.6-1,1.1-1.6,1.4c-0.1,0-0.2,0.1-0.2,0.2c-0.1,0.1-0.1,0.2-0.1,0.3
				c0,0.1,0.1,0.2,0.3,0.2c0.1,0,0.3,0,0.4,0c0.6-0.1,1.3-0.2,1.9,0c0.3,0.1,0.5,0.2,0.8,0.2c0.2,0.1,0.3,0,0.4-0.1
				C15.4,26.7,15.3,26.6,15.2,26.4z M12.8,26.1c0.4-0.3,0.7-0.6,1-1c0,0.4,0.1,0.8,0.4,1.1C13.7,26.1,13.2,26.1,12.8,26.1z"/>
			<path d="M12.9,37.6c-0.3,0-0.6,0.2-0.7,0.5c-0.1,0.1-0.1,0.1-0.2,0.1c0,0,0,0,0,0c-0.3-0.1-0.3-0.1-0.1-0.4
				c0.6-0.8,1.7-0.7,2.2,0.1c0,0.1,0,0.1,0,0.1c0,0,0,0,0,0c-0.1,0.1-0.2,0.1-0.3,0.1c-0.1,0-0.1-0.1-0.2-0.2
				C13.4,37.7,13.2,37.6,12.9,37.6z"/>
		</g>
	</g>
</g>
</svg>
